<svg xmlns="http://www.w3.org/2000/svg" viewBox="0 0 560 390" fill="none">
  <defs>
    <filter id="glow" x="-40%" y="-40%" width="180%" height="180%">
      <feGaussianBlur stdDeviation="4" result="blur"/>
      <feMerge><feMergeNode in="blur"/><feMergeNode in="SourceGraphic"/></feMerge>
    </filter>
    <linearGradient id="line" x1="72" y1="320" x2="492" y2="60" gradientUnits="userSpaceOnUse">
      <stop stop-color="#6DE7FF" stop-opacity=".26"/>
      <stop offset=".55" stop-color="#9D8CFF" stop-opacity=".58"/>
      <stop offset="1" stop-color="#FFB5DF" stop-opacity=".38"/>
    </linearGradient>
  </defs>
  <g stroke="url(#line)" stroke-width="2.2" stroke-linecap="round" stroke-linejoin="round">
    <path d="M98 245 157 202 244 188 330 209 381 170 407 119 453 94 486 112 460 139 418 146 397 188 358 236 275 254 188 245 122 281 75 274 98 245Z"/>
    <path d="M244 188 269 132 324 82 300 174 365 111 330 209"/>
    <path d="M276 150 339 56 327 145 405 77 365 188"/>
    <path d="M188 245 165 328M233 250 225 337M321 246 342 326M356 236 390 304"/>
    <path d="M122 281 74 313 42 301 75 274M453 94 448 66 465 89M397 188 433 216"/>
  </g>
  <g fill="#B6F5FF" filter="url(#glow)">
    <circle cx="98" cy="245" r="3.4"/><circle cx="157" cy="202" r="3.1"/><circle cx="244" cy="188" r="4"/>
    <circle cx="330" cy="209" r="3.3"/><circle cx="381" cy="170" r="3.1"/><circle cx="407" cy="119" r="3.6"/>
    <circle cx="453" cy="94" r="4"/><circle cx="486" cy="112" r="3.1"/><circle cx="418" cy="146" r="2.8"/>
    <circle cx="358" cy="236" r="3.1"/><circle cx="275" cy="254" r="3.2"/><circle cx="188" cy="245" r="3.1"/>
    <circle cx="122" cy="281" r="3.5"/><circle cx="75" cy="274" r="2.8"/><circle cx="269" cy="132" r="3.2"/>
    <circle cx="324" cy="82" r="4"/><circle cx="300" cy="174" r="2.8"/><circle cx="365" cy="111" r="3.5"/>
    <circle cx="339" cy="56" r="3.5"/><circle cx="405" cy="77" r="3"/><circle cx="165" cy="328" r="3.2"/>
    <circle cx="225" cy="337" r="3.2"/><circle cx="342" cy="326" r="3.2"/><circle cx="390" cy="304" r="3.2"/>
    <circle cx="74" cy="313" r="2.8"/><circle cx="42" cy="301" r="3.2"/><circle cx="448" cy="66" r="2.8"/>
    <circle cx="433" cy="216" r="2.8"/>
  </g>
</svg>
