<svg xmlns="http://www.w3.org/2000/svg" viewBox="0 0 256 256" role="img" aria-label="GasGiant Gas Giant representative hologram">
<defs>
  <radialGradient id="planet-gasgiant-gas-giant" cx="35%" cy="28%" r="78%">
    <stop offset="0" stop-color="#FE8943"/>
    <stop offset=".48" stop-color="#6CC4E1"/>
    <stop offset="1" stop-color="#A24AF2"/>
  </radialGradient>
  <radialGradient id="shade-gasgiant-gas-giant" cx="34%" cy="28%" r="75%">
    <stop offset=".30" stop-color="#FFFFFF" stop-opacity=".16"/>
    <stop offset=".72" stop-color="#001225" stop-opacity=".08"/>
    <stop offset="1" stop-color="#000712" stop-opacity=".82"/>
  </radialGradient>
  <clipPath id="clip-gasgiant-gas-giant"><circle cx="128" cy="126" r="103"/></clipPath>
  <filter id="noise-gasgiant-gas-giant" x="-20%" y="-20%" width="140%" height="140%">
    <feTurbulence type="fractalNoise" baseFrequency=".021 .034" numOctaves="3" seed="56" result="noise"/>
    <feColorMatrix in="noise" values=".33 .33 .33 0 0  .33 .33 .33 0 0  .33 .33 .33 0 0  0 0 0 .30 0" result="softNoise"/>
    <feBlend in="SourceGraphic" in2="softNoise" mode="soft-light"/>
  </filter>
  <filter id="glow-gasgiant-gas-giant" x="-60%" y="-60%" width="220%" height="220%">
    <feGaussianBlur stdDeviation="5" result="blur"/>
    <feMerge><feMergeNode in="blur"/><feMergeNode in="SourceGraphic"/></feMerge>
  </filter>
</defs>
<g opacity=".22" stroke="#245274" fill="none">
  <circle cx="128" cy="126" r="119"/><circle cx="128" cy="126" r="111" stroke-dasharray="2 9"/>
</g>
<ellipse cx="128" cy="126" rx="120" ry="48" fill="none" stroke="#FFD477" stroke-width="2" stroke-dasharray="8 7" opacity=".58"/>
<circle cx="128" cy="126" r="110" fill="none" stroke="#69E7FF" stroke-width="2" opacity=".62" filter="url(#glow-gasgiant-gas-giant)"/>
<g clip-path="url(#clip-gasgiant-gas-giant)" filter="url(#noise-gasgiant-gas-giant)">
  <rect x="8" y="6" width="240" height="240" fill="url(#planet-gasgiant-gas-giant)"/>
  <path d="M8 47 Q128 38 248 47 L248 58 Q128 67 8 58 Z" fill="#A24AF2" opacity="0.34"/><path d="M8 61 Q128 71 248 61 L248 72 Q128 62 8 72 Z" fill="#6CC4E1" opacity="0.44"/><path d="M8 75 Q128 66 248 75 L248 86 Q128 95 8 86 Z" fill="#FE8943" opacity="0.54"/><path d="M8 89 Q128 99 248 89 L248 100 Q128 90 8 100 Z" fill="#EED839" opacity="0.34"/><path d="M8 103 Q128 94 248 103 L248 114 Q128 123 8 114 Z" fill="#A24AF2" opacity="0.44"/><path d="M8 117 Q128 127 248 117 L248 128 Q128 118 8 128 Z" fill="#6CC4E1" opacity="0.54"/><path d="M8 131 Q128 122 248 131 L248 142 Q128 151 8 142 Z" fill="#FE8943" opacity="0.34"/><path d="M8 145 Q128 155 248 145 L248 156 Q128 146 8 156 Z" fill="#EED839" opacity="0.44"/><path d="M8 159 Q128 150 248 159 L248 170 Q128 179 8 170 Z" fill="#A24AF2" opacity="0.54"/><path d="M8 173 Q128 183 248 173 L248 184 Q128 174 8 184 Z" fill="#6CC4E1" opacity="0.34"/><path d="M8 187 Q128 178 248 187 L248 198 Q128 207 8 198 Z" fill="#FE8943" opacity="0.44"/><path d="M8 201 Q128 211 248 201 L248 212 Q128 202 8 212 Z" fill="#EED839" opacity="0.54"/>
  <circle cx="128" cy="126" r="103" fill="url(#shade-gasgiant-gas-giant)"/>
  <path d="M24 78h208M18 91h220M14 104h228M11 117h234M11 130h234M14 143h228M18 156h220M24 169h208" stroke="#B8F6FF" stroke-width="1" opacity=".07"/>
</g>
<circle cx="128" cy="126" r="103" fill="none" stroke="#B9F4FF" stroke-width="2" opacity=".72"/>
<path d="M24 126h18M214 126h18M128 22v14M128 216v14" stroke="#69E7FF" stroke-width="2" opacity=".82"/>

</svg>
