<svg xmlns="http://www.w3.org/2000/svg" viewBox="0 0 1200 675" role="img">
  <title>Capital freighter illustrative reconstruction</title><desc>An original Wonder Codex schematic used until an exact specimen screenshot is approved.</desc>
  <defs><radialGradient id="sky" cx="50%" cy="45%" r="72%"><stop stop-color="#29234f"/><stop offset=".6" stop-color="#101329"/><stop offset="1" stop-color="#050914"/></radialGradient><linearGradient id="hull" x1="0" y1="0" x2="1" y2="1"><stop stop-color="#4a3c70"/><stop offset="1" stop-color="#17172e"/></linearGradient><pattern id="grid" width="56" height="56" patternUnits="userSpaceOnUse"><path d="M56 0H0V56" fill="none" stroke="#b9adff" stroke-opacity=".07"/></pattern><filter id="glow"><feGaussianBlur stdDeviation="5" result="b"/><feMerge><feMergeNode in="b"/><feMergeNode in="SourceGraphic"/></feMerge></filter></defs>
  <rect width="1200" height="675" fill="url(#sky)"/><rect width="1200" height="675" fill="url(#grid)"/>
  <g fill="none" stroke="#b9adff"><ellipse cx="600" cy="375" rx="405" ry="137" stroke-opacity=".3" stroke-dasharray="9 16"/><path d="M58 142V58h84M1058 58h84v84M58 533v84h84M1058 617h84v-84" stroke-width="3" stroke-opacity=".5"/></g>
  <g stroke="#b9adff" stroke-width="7" stroke-linejoin="round" filter="url(#glow)"><path d="m181 411 178-86 458-39 202 91-197 86-469-12z" fill="url(#hull)"/><path d="m359 325 85-93 291-21 82 75-458 39zm-6 126 70 72 326 7 73-67" fill="url(#hull)"/><path d="m473 302 68 149m39-158 49 164m64-174 35 170M255 375h-79m748-36 103-32m-79 99 102 31" fill="none"/><path d="M471 282h240l-31-35-175 10z" fill="#55487c"/><g fill="#ffd783" stroke="none"><circle cx="370" cy="376" r="7"/><circle cx="435" cy="363" r="7"/><circle cx="501" cy="351" r="7"/></g></g>
  <g font-family="Inter,Arial,sans-serif" letter-spacing="4"><text x="58" y="42" font-size="17" fill="#eeeaff">WONDER CODEX // ASSET SCAN</text><text x="1142" y="42" font-size="14" text-anchor="end" fill="#ffd783">ILLUSTRATIVE — NOT EXACT SPECIMEN</text><text x="58" y="645" font-size="19" fill="#b9adff">CAPITAL FREIGHTER</text></g>
</svg>
