<svg xmlns="http://www.w3.org/2000/svg" viewBox="0 0 1200 675" role="img">
  <title>Procedural starship illustrative reconstruction</title><desc>An original Wonder Codex schematic used until an exact specimen screenshot is approved.</desc>
  <defs><radialGradient id="sky" cx="50%" cy="45%" r="72%"><stop stop-color="#17344f"/><stop offset=".6" stop-color="#091426"/><stop offset="1" stop-color="#050914"/></radialGradient><linearGradient id="hull" x1="0" y1="0" x2="1" y2="1"><stop stop-color="#1b4c64"/><stop offset="1" stop-color="#111b36"/></linearGradient><pattern id="grid" width="56" height="56" patternUnits="userSpaceOnUse"><path d="M56 0H0V56" fill="none" stroke="#6de7ff" stroke-opacity=".07"/></pattern><filter id="glow"><feGaussianBlur stdDeviation="5" result="b"/><feMerge><feMergeNode in="b"/><feMergeNode in="SourceGraphic"/></feMerge></filter></defs>
  <rect width="1200" height="675" fill="url(#sky)"/><rect width="1200" height="675" fill="url(#grid)"/>
  <g fill="none" stroke="#6de7ff"><ellipse cx="600" cy="370" rx="374" ry="142" stroke-opacity=".28" stroke-dasharray="9 16"/><path d="M58 142V58h84M1058 58h84v84M58 533v84h84M1058 617h84v-84" stroke-width="3" stroke-opacity=".5"/><path d="M600 160v405M270 370h660" stroke-opacity=".14"/></g>
  <g stroke="#6de7ff" stroke-width="7" stroke-linejoin="round" filter="url(#glow)"><path d="m255 405 244-83 142-143 72 147 229 80-230 55-112-64-109 65z" fill="url(#hull)"/><path d="m499 322 101 75 41-218M379 364l-59-101 193 54m200 9 146-94-47 140" fill="none"/><path d="m255 405-77 29 95 18m669-46 79 30-101 18" fill="none"/><path d="M543 315h96l31 47-70 35-81-43z" fill="#2b5269"/><circle cx="600" cy="350" r="8" fill="#ffd783" stroke="none"/></g>
  <g font-family="Inter,Arial,sans-serif" letter-spacing="4"><text x="58" y="42" font-size="17" fill="#d8f8ff">WONDER CODEX // ASSET SCAN</text><text x="1142" y="42" font-size="14" text-anchor="end" fill="#ffd783">ILLUSTRATIVE — NOT EXACT SPECIMEN</text><text x="58" y="645" font-size="19" fill="#6de7ff">PROCEDURAL STARSHIP</text></g>
</svg>
