<svg xmlns="http://www.w3.org/2000/svg" viewBox="0 0 1200 675" role="img">
  <title>Floating arachnid representative archetype</title><desc>A stylized scan silhouette representing the floating spider-like fauna family.</desc>
  <defs><radialGradient id="sky" cx="50%" cy="42%" r="72%"><stop stop-color="#1d3450"/><stop offset=".58" stop-color="#0a1327"/><stop offset="1" stop-color="#050914"/></radialGradient><radialGradient id="body" cx="45%" cy="32%" r="65%"><stop stop-color="#2e6170"/><stop offset=".65" stop-color="#173148"/><stop offset="1" stop-color="#11172e"/></radialGradient><pattern id="grid" width="56" height="56" patternUnits="userSpaceOnUse"><path d="M56 0H0V56" fill="none" stroke="#6de7ff" stroke-opacity=".07"/></pattern><filter id="glow"><feGaussianBlur stdDeviation="5" result="b"/><feMerge><feMergeNode in="b"/><feMergeNode in="SourceGraphic"/></feMerge></filter></defs>
  <rect width="1200" height="675" fill="url(#sky)"/><rect width="1200" height="675" fill="url(#grid)"/>
  <g fill="none" stroke="#6de7ff"><circle cx="600" cy="337" r="230" stroke-opacity=".22"/><circle cx="600" cy="337" r="285" stroke-opacity=".32" stroke-dasharray="9 16"/><path d="M58 142V58h84M1058 58h84v84M58 533v84h84M1058 617h84v-84" stroke-width="3" stroke-opacity=".5"/></g>
  <g stroke="#6de7ff" stroke-width="7" stroke-linecap="round" stroke-linejoin="round" filter="url(#glow)">
    <path d="M480 307c0-106 51-171 120-171s120 65 120 171c0 73-41 123-120 123s-120-50-120-123z" fill="url(#body)"/>
    <path d="M510 382c-78 36-126 93-142 166m184-139c-55 67-66 117-56 169m194-169c55 67 66 117 56 169m-56-196c78 36 126 93 142 166M493 335c-92 1-143 29-180 83m394-83c92 1 143 29 180 83" fill="none"/>
    <path d="M560 207c-18 40-13 88 12 118m68-118c18 40 13 88-12 118" fill="none" stroke-opacity=".6"/>
    <circle cx="570" cy="292" r="9" fill="#ffd783" stroke="none"/><circle cx="630" cy="292" r="9" fill="#ffd783" stroke="none"/>
  </g>
  <g font-family="Inter,Arial,sans-serif" letter-spacing="4"><text x="58" y="42" font-size="17" fill="#d8f8ff">WONDER CODEX // ARCHETYPE SCAN</text><text x="1142" y="42" font-size="14" text-anchor="end" fill="#ffd783">NOT A SPECIMEN IMAGE</text><text x="58" y="645" font-size="19" fill="#6de7ff">FLOATING ARACHNID</text></g>
</svg>
